{"title":"Snow.White.and.the.Huntsman.2012.TS.XviD.AC3-ADTRG","uid":7335165,"size":1497006254,"categoryP":"video","categoryS":"movies","magnet":"?xt=urn:btih:0393afe75fe60e5dfb7333229a71f32c8a898030&amp;dn=Snow.White.and.the.Huntsman.2012.TS.XviD.AC3-ADTRG&amp;tr=udp%3A%2F%2Ftracker.openbittorrent.com%3A80&amp;tr=udp%3A%2F%2Fopen.demonii.com%3A1337&amp;tr=udp%3A%2F%2Ftracker.coppersurfer.tk%3A6969&amp;tr=udp%3A%2F%2Fexodus.desync.com%3A6969","seeders":20,"leechers":0,"uploader":"maximersk","files":4,"time":1339050897,"description":"Snow.White.and.the.Huntsman.2012.TS.XviD.AC3-ADTRG\n\n\n\n\n\nIn a twist to the fairy tale, the Huntsman ordered to take Snow White into the woods to be killed winds up becoming her protector and mentor in a quest to vanquish the Evil Queen. \n\n\nComplete name : Snow.White.and.the.Huntsman.2012.TS.XViD.AC3-ADTRG.avi\nFormat : AVI\nFormat/Info : Audio Video Interleave\nFile size : 1.39 GiB\nDuration : 1h 57mn\nOverall bit rate : 1 693 Kbps\nWriting application : Nandub v1.0rc2\nWriting library : VirtualDub build 34703/release\n\nVideo\nID : 0\nFormat : MPEG-4 Visual\nCodec ID : XVID\nBit rate : 1 489 Kbps\nWidth : 720 pixels\nHeight : 320 pixels\nDisplay aspect ratio : 2.25:1\nFrame rate : 29.970 fps\nStream size : 1.22 GiB (88%)\n\nAudio\nID : 1\nFormat : AC-3\nBit rate : 192 Kbps\nChannel(s) : 2 channels\nChannel positions : Front: L R\nSampling rate : 48.0 KHz\nStream size : 161 MiB (11%)\n\n\nSource - Cam German Thanks\nSource - LiNe - Dragon Exclusive Thanks, Awesome work bro\n\nNotes.\nVery nice Cam, Even better LiNe (Cheers Bro) slight flicker every now and then, luckily not to often or to bad. Who reads NFO's anyway, so im of to bed, get some BooM Boom and Eat. Enjoy\nRemember, if you love it and you want it, Sync some LiNe with it. lol","torrent":{"xt":"urn:btih:0393afe75fe60e5dfb7333229a71f32c8a898030","amp;dn":"Snow.White.and.the.Huntsman.2012.TS.XviD.AC3-ADTRG","amp;tr":["udp%3A%2F%2Ftracker.openbittorrent.com%3A80","udp%3A%2F%2Fopen.demonii.com%3A1337","udp%3A%2F%2Ftracker.coppersurfer.tk%3A6969","udp%3A%2F%2Fexodus.desync.com%3A6969"],"infoHash":"0393afe75fe60e5dfb7333229a71f32c8a898030","infoHashBuffer":{"type":"Buffer","data":[3,147,175,231,95,230,14,93,251,115,51,34,154,113,243,44,138,137,128,48]},"announce":[],"urlList":[]}}